<svg version="1.0" xmlns="http://www.w3.org/2000/svg"
  width="20" height="20" viewBox="0 0 1280.000000 1028.000000"
 preserveAspectRatio="xMidYMid meet">
<g transform="translate(0.000000,1028.000000) scale(0.100000,-0.100000)"
fill="#000000" stroke="none">
<path d="M6435 10269 c-11 -5 -298 -72 -637 -148 -339 -77 -632 -147 -651
-156 -50 -23 -123 -100 -168 -176 -22 -36 -78 -151 -125 -255 -107 -238 -154
-322 -225 -395 -95 -99 -201 -135 -374 -127 -103 5 -139 15 -425 120 -71 27
-100 32 -175 32 -87 1 -106 -4 -585 -143 -272 -79 -516 -154 -541 -167 -115
-57 -210 -211 -339 -549 -128 -334 -188 -446 -293 -541 -121 -111 -290 -136
-590 -88 -147 23 -285 16 -357 -18 -30 -15 -235 -145 -455 -290 -457 -301
-433 -277 -459 -448 -38 -248 -46 -417 -26 -603 5 -51 14 -159 20 -242 13
-187 35 -363 60 -480 11 -56 187 -558 460 -1320 243 -676 579 -1615 747 -2085
169 -470 315 -865 326 -877 70 -79 465 -51 942 68 374 93 681 225 700 301 3
14 -56 252 -144 578 -82 305 -303 1127 -491 1825 -188 699 -352 1311 -366
1360 -31 116 -31 121 8 133 86 27 320 74 328 66 4 -5 40 -128 80 -274 65 -242
654 -2408 1021 -3754 82 -301 152 -552 155 -557 27 -44 185 -64 387 -49 677
51 1647 318 1718 474 8 16 -33 217 -180 876 -139 627 -713 3220 -830 3751 -5
21 -6 42 -2 47 6 11 304 82 340 82 15 0 23 -10 30 -38 6 -21 126 -530 266
-1132 525 -2248 588 -2517 708 -3030 l122 -525 40 -20 c36 -18 59 -20 245 -19
275 0 573 39 1035 134 760 157 1325 366 1325 488 0 15 -212 1085 -470 2377
-259 1293 -469 2359 -468 2369 3 22 16 26 226 73 78 17 126 23 132 17 5 -5
153 -660 329 -1454 176 -795 405 -1831 510 -2304 105 -472 195 -864 201 -871
39 -47 298 -69 548 -46 696 64 1540 313 1626 480 14 27 10 60 -69 502 -46 261
-125 706 -175 989 -50 283 -140 792 -200 1130 -60 338 -123 694 -140 790 -17
96 -80 452 -140 790 -60 338 -156 883 -214 1210 -58 327 -113 620 -122 650
-65 220 -335 727 -554 1042 -99 143 -243 298 -303 327 l-42 20 -648 -99 c-407
-63 -668 -108 -702 -121 -65 -24 -139 -78 -260 -188 -107 -98 -226 -180 -312
-214 -242 -98 -370 -52 -691 244 -297 275 -351 322 -417 368 -77 54 -184 101
-224 100 -14 0 -35 -5 -46 -10z"/>
<path d="M11450 6634 c0 -7 68 -389 270 -1524 55 -311 114 -639 130 -730 16
-91 75 -419 130 -730 156 -874 152 -847 145 -919 -14 -133 -64 -230 -174 -334
-121 -114 -305 -211 -560 -297 -112 -37 -1023 -266 -2901 -730 l-655 -161 -37
-40 c-115 -124 -223 -469 -235 -749 -9 -206 25 -345 97 -399 28 -20 36 -22 78
-12 26 5 76 12 112 15 36 3 211 19 390 36 689 64 2431 222 2975 270 314 27
593 55 620 61 28 6 91 30 140 54 277 133 568 454 625 688 6 23 28 492 50 1042
22 550 44 1117 49 1260 6 143 26 676 45 1185 20 509 40 981 46 1049 6 68 10
124 8 126 -3 3 -1315 827 -1335 839 -7 4 -13 4 -13 0z"/>
</g>
</svg>
