<svg xmlns="http://www.w3.org/2000/svg" width="20" height="20" viewBox="0 0 20 20" id="wand">
  <g id="Page-1" fill-rule="evenodd" stroke="none" stroke-width="1">
    <g id="Dribbble-Light-Preview" transform="translate(-300 -4999)">
      <g id="icons" transform="translate(56 160)">
        <path id="wand_round-[#722]" d="M264 4843.987a.995.995 0 0 0-1.001-.998h-.53c-.554 0-.683-.317-.3-.7l.425-.423a.983.983 0 0 0-.019-1.405 1.03 1.03 0 0 0-1.432-.006l-.431.424c-.393.387-.712.25-.712-.304v-.57a1 1 0 0 0-1-1.005c-.552 0-1 .45-1 1.005v.57c0 .554-.314.686-.702.294l-.398-.404a.982.982 0 0 0-1.402-.004.997.997 0 0 0 .006 1.405l.428.424c.39.386.26.7-.29.7h-.644a.998.998 0 0 0 0 1.995h.643c.551 0 .686.31.291.704l-11.225 11.196a1.002 1.002 0 0 0-.005 1.418l-.016-.016a.99.99 0 0 0 1.416 0l11.184-11.179c.394-.394.714-.264.714.291v.57a1 1 0 0 0 1 1.005c.552 0 1-.45 1-1.005v-.57c0-.555.323-.687.712-.305l.431.425a1.015 1.015 0 0 0 1.425-.006.998.998 0 0 0 .007-1.416l-.401-.403c-.39-.392-.266-.71.294-.71h.53a.997.997 0 0 0 1.002-.997z"></path>
      </g>
    </g>
  </g>
</svg>
